<svg width="800" height="800" viewBox="0 0 800 800" fill="none" xmlns="http://www.w3.org/2000/svg">
<g clip-path="url(#clip0_30_3)">
<path d="M20.475 176.191C20.4532 176.177 20.4532 176.177 20.4532 176.149L20.4329 176.135L20.475 176.191Z" fill="white"/>
<path d="M217.997 284.155L218.4 284.28C218.38 284.252 218.359 284.252 218.337 284.238L217.997 284.155Z" fill="white"/>
<path d="M131.864 254.845C131.773 254.805 131.689 254.761 131.586 254.734L131.113 254.553L131.864 254.845Z" fill="white"/>
<path d="M800 100.514C800 86.2704 798.309 71.4141 795.072 55.8188L794.905 54.9969L793.958 52.3235H793.936C791.945 44.3454 787.489 37.411 781.384 32.7891C774.875 27.7766 766.82 25.2704 758.597 25.2704C755.764 25.2704 752.875 25.5625 750.006 26.161C741.053 28.0125 733.381 32.9282 728.048 39.5829C722.695 46.1969 719.569 54.5641 719.569 63.4766C719.569 66.025 719.827 68.6297 720.356 71.2188C722.716 82.5813 723.677 92.2297 723.677 100.486C723.655 108.702 722.778 115.273 721.261 120.884C719.736 126.494 717.619 131.216 714.764 135.823C709.244 144.708 700.417 153.228 686.597 161.75L686.492 161.82L686.43 161.861C685.483 162.459 684.459 163.088 683.45 163.684V134.809C683.45 125.145 679.489 116.275 673.147 109.981C666.831 103.647 657.983 99.7204 648.363 99.7204C638.706 99.7063 629.838 103.647 623.538 109.981C617.202 116.303 613.263 125.173 613.263 134.809V193.497C599.805 198.147 585.436 202.881 570.286 207.767V184.266C570.286 174.616 566.345 165.733 560.011 159.439C553.689 153.105 544.841 149.164 535.206 149.164C525.564 149.164 516.716 153.105 510.402 159.439C504.059 165.733 500.119 174.616 500.119 184.266V238.916C473.581 256.069 454.964 276.316 443.311 296.198C438.534 304.289 434.914 312.183 432.13 319.605C420.33 319.605 408.933 319.605 400.002 319.605C391.07 319.605 379.673 319.605 367.852 319.605C365.067 312.183 361.447 304.289 356.692 296.198C345.017 276.316 326.402 256.07 299.883 238.916V184.266C299.883 174.616 295.922 165.733 289.58 159.439C283.259 153.105 274.416 149.164 264.795 149.164C255.161 149.164 246.311 153.105 239.991 159.439C233.655 165.733 229.688 174.616 229.688 184.266V207.769C214.545 202.883 200.177 198.147 186.719 193.498V134.811C186.719 125.175 182.8 116.305 176.463 109.983C170.142 103.648 161.272 99.7079 151.638 99.7219C141.995 99.7219 133.147 103.648 126.833 109.983C120.511 116.277 116.55 125.145 116.55 134.811V163.688C115.519 163.061 114.469 162.463 113.508 161.838L113.405 161.753C99.6032 153.23 90.7751 144.75 85.2344 135.853C82.4016 131.231 80.2844 126.495 78.7391 120.886C77.2219 115.247 76.3438 108.673 76.3016 100.488C76.3016 92.2313 77.2844 82.5829 79.6157 71.1922C80.1516 68.6313 80.4094 66.0266 80.4094 63.4782C80.4094 54.5672 77.2844 46.1719 71.9501 39.5579C66.6172 32.9297 58.9251 28.0141 49.9719 26.15C47.0626 25.5641 44.1251 25.2454 41.2141 25.2454C33.0766 25.2454 25.0626 27.6407 18.5266 32.5704C11.9532 37.4563 7.08755 44.9766 5.33286 53.6922V53.7626L4.90786 55.875L4.92974 55.8188C1.69068 71.4141 5.13859e-05 86.2719 5.13859e-05 100.514V100.877C-0.0218236 128.877 6.94068 154.663 20.4532 176.148C30.5001 192.258 43.5876 205.5 58.1094 216.375C79.8516 232.678 104.791 244.319 131.586 254.734L131.886 254.845C158.786 265.217 187.902 274.339 218.338 284.238L218.4 284.252V284.28C240.873 291.673 256.573 300.431 267.858 309.217C274.414 314.355 279.469 319.478 283.563 324.492C277.841 326.636 271.847 329.588 265.998 333.416C247.167 327.166 225.147 320.37 205.228 314.508C185.094 308.589 167.203 303.661 156.558 301.183C152.513 300.236 148.441 299.748 144.417 299.748C135.269 299.748 126.078 302.269 118.777 308.438C115.156 311.5 112.114 315.497 110.102 320.078C108.083 324.659 107.102 329.797 107.102 335.13C107.122 343.734 109.566 352.909 114.342 362.852C122.614 379.936 132.291 400.056 147.028 417.989C161.703 435.908 181.92 451.656 209.747 458.548C213.688 459.536 217.545 460.275 221.359 460.859C219.877 468.531 218.527 475.689 217.391 481.731C215.638 491.13 214.398 497.883 213.925 500.667C213.305 504.356 213.027 507.977 213.027 511.486C213.027 523.933 216.536 534.961 220.755 544.458C225 553.953 230.033 562.141 233.697 568.977C233.842 569.256 234.295 570.173 234.852 571.398C237.017 576.064 240.978 585.364 245.692 596.63C252.758 613.575 261.566 635.1 269.147 653.563C272.934 662.794 276.408 671.261 279.214 678.028C282.019 684.808 284.092 689.766 285.319 692.439C287.589 697.452 291.188 704.608 294.313 710.694C296.005 714.036 297.528 716.972 298.573 718.978C298.573 720.259 298.573 721.47 298.573 722.472C298.573 723.155 298.573 723.795 298.573 724.38C298.573 727.75 298.964 732.025 300.056 737.023C301.748 744.43 304.958 753.383 312.009 761.195C315.519 765.08 320.038 768.573 325.502 770.998C330.967 773.434 337.302 774.756 344.18 774.756C372.883 774.756 400 774.756 400 774.756C400.02 774.756 406.767 774.756 417.133 774.756C427.506 774.756 441.472 774.756 455.798 774.756C464.988 774.8 473.189 772.363 479.642 768.241C484.48 765.178 488.295 761.278 491.206 757.241C495.578 751.114 498.016 744.639 499.477 738.903C500.931 733.138 501.405 728.153 501.427 724.38C501.427 723.795 501.427 723.155 501.427 722.472C501.427 721.47 501.427 720.259 501.427 718.978C502.45 716.973 503.975 714.036 505.688 710.694C508.792 704.608 512.391 697.453 514.681 692.439C515.559 690.517 516.847 687.495 518.538 683.417C524.469 669.27 535.247 642.814 545.181 618.672C550.152 606.614 554.906 595.127 558.722 586.119C560.628 581.608 562.3 577.708 563.65 574.716C564.952 571.763 566.003 569.506 566.303 568.978C569.966 562.141 574.978 553.955 579.245 544.459C583.486 534.964 586.973 523.934 586.973 511.488C586.973 507.952 586.695 504.358 586.075 500.669C585.624 497.884 584.363 491.117 582.609 481.733C581.475 475.691 580.123 468.533 578.641 460.861C582.436 460.277 586.313 459.538 590.253 458.55C618.059 451.658 638.297 435.909 652.972 417.991C667.689 400.056 677.388 379.936 685.658 362.853C690.434 352.911 692.877 343.736 692.898 335.159C692.898 329.798 691.917 324.688 689.898 320.094C686.877 313.173 681.544 307.756 675.417 304.484C669.291 301.156 662.461 299.75 655.583 299.75C651.538 299.75 647.466 300.238 643.42 301.184C632.769 303.663 614.905 308.591 594.77 314.509C574.852 320.356 552.853 327.166 534.048 333.417C528.18 329.561 522.116 326.664 516.414 324.506C520.508 319.495 525.561 314.356 532.141 309.219C543.425 300.433 559.103 291.675 581.577 284.281C612.034 274.339 641.17 265.219 668.092 254.847H668.133C695.019 244.405 720.055 232.75 741.886 216.377C756.388 205.502 769.499 192.259 779.522 176.15C792.977 154.789 800 129.114 800 101.225V100.514ZM282.769 290.1C268.992 279.378 250.659 269.353 225.959 261.234H225.938C195.369 251.294 166.623 242.258 140.773 232.288L140.619 232.231C114.658 222.178 91.6985 211.303 72.6782 196.991C60.036 187.522 49.1751 176.425 41.0157 163.323L40.9751 163.253C30.1344 146.016 24.2438 124.906 24.2438 100.875V100.541V100.513C24.2438 88.2032 25.7001 74.9625 28.6579 60.7313V60.6485L29.0829 58.5735C29.7922 55.3422 31.1422 53.4485 33.0922 51.9454C35.0422 50.4704 37.7782 49.4954 41.211 49.4954C42.4094 49.4954 43.7172 49.6063 45.0672 49.8985C48.3813 50.5797 51.1032 52.336 53.0735 54.7844C55.0438 57.2219 56.1797 60.2844 56.1797 63.4735C56.1797 64.3922 56.0766 65.3391 55.8797 66.3016C53.2485 79.0266 52.0501 90.3469 52.0501 100.511V100.539C52.0922 110.481 53.1844 119.252 55.3438 127.203C57.4672 135.155 60.6844 142.2 64.5813 148.534L64.6438 148.647L64.6235 148.603C72.6297 161.497 84.6032 172.483 100.539 182.313C100.567 182.341 100.588 182.353 100.609 182.353C100.631 182.353 100.65 182.381 100.65 182.381C107.675 186.808 115.369 190.791 123.444 194.661L140.794 202.917V134.809C140.794 128.794 145.631 123.977 151.633 123.977C154.717 123.977 157.327 125.173 159.319 127.123C161.289 129.114 162.466 131.731 162.466 134.811V210.722L170.561 213.577C190.188 220.495 211.67 227.43 234.464 234.783L234.373 234.755C234.931 234.936 236.025 235.409 237.973 236.064L253.93 241.397V184.266C253.952 178.25 258.795 173.405 264.789 173.405C267.811 173.433 270.45 174.616 272.461 176.578C274.431 178.597 275.63 181.203 275.63 184.266V252.408L281.498 255.917C307.995 271.861 325.414 290.797 335.78 308.464C338.008 312.252 339.867 315.983 341.566 319.605C328.345 319.605 316.759 319.605 309.923 319.605C303.822 310.095 295.209 299.791 282.769 290.1ZM524.708 356.53L530.361 361.069L537.045 358.214C538.633 357.531 539.941 357.002 541.18 356.599C559.733 350.402 581.753 343.623 601.609 337.773C621.444 331.939 639.244 327.039 648.922 324.783H648.944C651.284 324.255 653.531 323.989 655.584 323.989C660.32 323.975 663.703 325.327 665.527 326.914C666.466 327.72 667.134 328.598 667.691 329.823C668.227 331.063 668.652 332.733 668.652 335.156C668.674 338.986 667.475 344.791 663.834 352.338C655.655 369.325 646.631 387.564 634.234 402.603C628.066 410.094 621.083 416.833 612.938 422.345C604.778 427.888 595.484 432.245 584.366 435.031C577.252 436.813 570.338 437.731 563.584 438.122L549.75 438.888L552.361 452.506C554.784 465.064 557.033 476.886 558.788 486.202C560.52 495.502 561.788 502.38 562.17 504.65C562.561 506.961 562.727 509.231 562.727 511.488C562.727 519.298 560.52 526.914 557.095 534.6C553.691 542.258 549.111 549.833 544.955 557.519C544.377 558.606 543.82 559.759 543.13 561.223C540.645 566.597 536.705 575.898 531.948 587.289C524.813 604.345 515.992 625.914 508.431 644.348C504.638 653.594 501.191 662.045 498.406 668.728C495.642 675.413 493.499 680.453 492.622 682.402C490.694 686.62 487.136 693.75 484.094 699.655C482.597 702.62 481.205 705.294 480.202 707.242C479.192 709.177 478.572 710.375 478.552 710.375L477.18 713.022V716C477.18 718.617 477.18 720.734 477.18 722.475C477.18 723.158 477.18 723.798 477.18 724.383C477.18 725.803 476.964 728.672 476.253 731.748C475.25 736.469 473.106 741.606 470.044 744.906C468.527 746.578 466.814 747.886 464.628 748.847C462.442 749.834 459.678 750.516 455.8 750.516C441.472 750.516 427.506 750.516 417.134 750.516C406.769 750.516 400.022 750.516 400.002 750.516C400.002 750.516 372.886 750.516 344.181 750.516C339.016 750.489 335.847 749.333 333.341 747.773C331.433 746.577 329.873 745.03 328.503 743.094C326.422 740.253 324.903 736.508 324.006 732.944C323.08 729.394 322.802 725.969 322.822 724.381C322.822 723.797 322.822 723.156 322.822 722.473C322.822 720.734 322.822 718.617 322.822 715.998V713.02L321.43 710.373C321.43 710.373 320.809 709.175 319.8 707.241C318.283 704.331 315.93 699.75 313.548 695.056C311.195 690.378 308.814 685.547 307.38 682.4C306.761 681.022 305.472 678.042 303.822 674.088C297.973 660.122 287.203 633.625 277.22 609.439C272.25 597.339 267.473 585.811 263.595 576.663C261.647 572.081 259.934 568.1 258.52 564.883C257.086 561.667 256.036 559.383 255.027 557.517C250.891 549.833 246.309 542.258 242.906 534.598C239.48 526.913 237.275 519.323 237.275 511.486C237.275 509.258 237.442 506.989 237.831 504.648C238.216 502.378 239.481 495.473 241.216 486.2C242.97 476.884 245.219 465.063 247.641 452.505L250.252 438.886L236.419 438.12C229.666 437.73 222.753 436.811 215.638 435.03C204.519 432.245 195.205 427.886 187.066 422.344C174.875 414.088 165.213 403.075 157.053 390.78C148.916 378.527 142.316 365.075 136.188 352.308C132.527 344.761 131.328 338.984 131.35 335.127C131.35 332.731 131.773 331.061 132.291 329.822C133.125 328.025 134.198 326.883 136.125 325.798C138.033 324.739 140.88 323.988 144.417 323.988C146.448 323.988 148.698 324.253 151.058 324.781C160.734 327.038 178.536 331.938 198.37 337.772C218.227 343.62 240.267 350.4 258.8 356.597C260.039 357 261.369 357.53 262.956 358.213L269.641 361.067L275.294 356.528C280.563 352.309 287.094 348.969 292.983 346.823C295.92 345.752 298.684 344.986 300.955 344.484C303.183 343.997 305.027 343.83 305.605 343.844C317.084 343.844 371.297 343.844 400 343.844C428.703 343.844 482.916 343.844 494.395 343.844C494.973 343.83 496.797 343.997 499.045 344.484C505.925 345.906 516.847 350.166 524.708 356.53ZM775.752 100.542V101.225C775.731 125.105 769.82 146.073 759.002 163.256L758.961 163.327C750.823 176.428 739.941 187.525 727.32 196.994C708.278 211.308 685.319 222.181 659.378 232.234H659.4C633.481 242.219 604.694 251.253 574.061 261.236H574.02C549.341 269.355 530.989 279.38 517.233 290.102C504.77 299.792 496.18 310.095 490.075 319.606C483.217 319.606 471.633 319.606 458.433 319.606C460.105 315.986 461.991 312.255 464.197 308.466C474.584 290.797 492.003 271.861 518.478 255.919L524.369 252.409V184.266C524.369 181.203 525.545 178.598 527.536 176.578C529.527 174.616 532.166 173.431 535.208 173.405C541.202 173.405 546.047 178.25 546.047 184.266V241.394L562.025 236.061C563.891 235.42 564.914 234.975 565.513 234.794L565.533 234.781C588.325 227.428 609.811 220.495 629.436 213.575L637.506 210.72V134.809C637.506 131.731 638.709 129.113 640.68 127.122C642.672 125.173 645.283 123.975 648.366 123.975C654.345 123.975 659.184 128.792 659.205 134.808V202.922L676.533 194.666C684.588 190.823 692.322 186.841 699.325 182.386V182.413C699.366 182.386 699.388 182.356 699.409 182.344C699.43 182.316 699.458 182.316 699.478 182.302C715.394 172.472 727.347 161.5 735.373 148.606L735.395 148.58C739.342 142.23 742.552 135.13 744.675 127.192C746.813 119.242 747.905 110.455 747.927 100.542V100.514C747.927 90.3501 746.728 79.0297 744.117 66.3047C743.902 65.3157 743.817 64.3969 743.817 63.4766C743.817 60.2891 744.931 57.225 746.902 54.7875C748.894 52.3375 751.616 50.5829 754.928 49.9016L754.956 49.8735C756.216 49.6235 757.414 49.511 758.597 49.511C761.959 49.511 764.653 50.5001 766.623 52.0032C768.553 53.536 769.944 55.5126 770.655 58.7844L770.822 59.6485L771.47 61.4438C774.317 75.3969 775.752 88.4141 775.752 100.514V100.542Z" fill="white"/>
<path d="M779.567 176.135C779.547 176.149 779.547 176.149 779.527 176.149C779.527 176.177 779.527 176.177 779.527 176.177L779.567 176.135Z" fill="white"/>
<path d="M173.1 371.303C184.169 391.075 196.702 405.792 217.781 411.083C223.413 412.477 229.281 413.214 235.213 413.297C238.319 397.591 241.214 383.333 242.927 375.814C224.075 369.533 201.948 362.822 184.231 357.797C176.03 355.43 169.758 365.33 173.1 371.303Z" fill="white"/>
<path d="M297.355 498.259H267.795L277.347 511.25C276.128 513.994 275.417 516.986 275.417 520.175C275.417 532.287 285.233 542.117 297.355 542.117C309.433 542.117 319.242 532.287 319.242 520.175C319.242 508.075 309.433 498.259 297.355 498.259Z" fill="white"/>
<path d="M409.852 661.697H390.149C373.161 661.697 359.385 675.494 359.385 692.469C359.385 709.469 373.163 723.267 390.149 723.267H409.852C426.839 723.267 440.616 709.469 440.616 692.469C440.616 675.494 426.838 661.697 409.852 661.697Z" fill="white"/>
<path d="M480.758 520.177C480.758 532.289 490.567 542.119 502.667 542.119C514.767 542.119 524.603 532.289 524.603 520.177C524.603 516.988 523.872 513.994 522.633 511.252L532.205 498.261H502.666C490.567 498.259 480.758 508.075 480.758 520.177Z" fill="white"/>
<path d="M582.241 411.083C603.3 405.792 615.831 391.075 626.88 371.303C630.244 365.33 623.97 355.43 615.769 357.797C598.031 362.822 575.927 369.534 557.053 375.814C558.766 383.333 561.683 397.591 564.767 413.297C570.719 413.214 576.588 412.477 582.241 411.083Z" fill="white"/>
</g>
<defs>
<clipPath id="clip0_30_3">
<rect width="800" height="800" fill="white"/>
</clipPath>
</defs>
</svg>
